# xmcd
#
# Track frame offsets: 
#        152
#        8466
#        21066
#        30559
#        43707
#        55948
#        64305
#        75634
#        85263
#
# Disc length: 1299 seconds
#
# Revision: 0
# Processed by: cddbd v1.5.2PL0 Copyright (c) Steve Scherf et al.
# Submitted via: ExactAudioCopy v0.99pb4
#
DISCID=62051109
DTITLE=Retta and the Smart Fellas - They Took the Stars Out of Heaven
DYEAR=1900
DGENRE=Western Swing
TTITLE0=They Took The Stars Out Of Heaven
TTITLE1=I Love You Honey
TTITLE2=Farr Enough
TTITLE3=What Did You Expect Me To Do?
TTITLE4=Idaho
TTITLE5=Buffalo Polka
TTITLE6=Waitin' Just For You
TTITLE7=Does My Baby Call Me Honey, Yes Sir
TTITLE8=Precious Lord
EXTD=
EXTT0=
EXTT1=
EXTT2=
EXTT3=
EXTT4=
EXTT5=
EXTT6=
EXTT7=
EXTT8=
PLAYORDER=
